<svg width="238.32" height="43.92" viewBox="0 0 238.32 43.92" xmlns="http://www.w3.org/2000/svg"><g id="svgGroup" stroke-linecap="round" fill-rule="evenodd" font-size="9pt" stroke="#000" stroke-width="0.25mm" fill="#000" style="stroke:#000;stroke-width:0.25mm;fill:#000"><path d="M 26.34 43.92 L 27.72 37.62 L 10.44 0.24 L 9.84 0.24 L 4.86 43.08 L 8.1 43.08 L 11.64 3.78 L 10.44 0.24 L 9.3 6.96 L 26.34 43.92 Z M 100.32 1.08 L 108.78 1.08 A 16.131 16.131 0 0 1 111.581 1.313 A 12.874 12.874 0 0 1 113.67 1.86 A 10.624 10.624 0 0 1 116.083 3.067 A 9.196 9.196 0 0 1 117.36 4.11 Q 118.86 5.58 119.67 7.65 Q 120.48 9.72 120.48 12.36 Q 120.48 15.24 119.13 17.88 Q 117.78 20.52 115.47 22.17 Q 113.16 23.82 110.28 23.82 A 4.258 4.258 0 0 1 111.036 24.234 Q 111.73 24.703 112.497 25.527 A 12.186 12.186 0 0 1 112.5 25.53 A 34.372 34.372 0 0 1 113.755 26.953 A 26.983 26.983 0 0 1 114.6 28.02 L 115.41 29.19 A 94.328 94.328 0 0 0 116.077 30.139 Q 116.379 30.565 116.722 31.04 A 197.868 197.868 0 0 0 117.45 32.04 Q 118.68 33.72 119.94 35.34 Q 120.787 36.428 121.471 37.219 A 23.784 23.784 0 0 0 122.1 37.92 A 28.058 28.058 0 0 0 123.6 39.453 A 23.269 23.269 0 0 0 124.5 40.26 Q 125.7 41.28 127.11 41.88 A 7.52 7.52 0 0 0 129.256 42.427 A 9.307 9.307 0 0 0 130.26 42.48 L 130.26 43.08 L 126.96 43.08 A 15.237 15.237 0 0 1 124.708 42.922 Q 123.328 42.716 122.19 42.24 A 13.557 13.557 0 0 1 120.258 41.254 A 10.569 10.569 0 0 1 118.8 40.17 A 27.724 27.724 0 0 1 117.562 39 Q 116.974 38.407 116.491 37.837 A 16.91 16.91 0 0 1 116.46 37.8 A 11.919 11.919 0 0 1 116.37 37.678 Q 116.147 37.373 115.572 36.563 A 469.446 469.446 0 0 1 115.47 36.42 A 299.572 299.572 0 0 1 114.82 35.502 Q 114.532 35.093 114.214 34.64 A 566.76 566.76 0 0 1 113.55 33.69 Q 112.44 32.1 111.36 30.54 A 643.198 643.198 0 0 0 110.592 29.433 Q 110.29 28.999 110.017 28.608 A 332.276 332.276 0 0 0 109.5 27.87 A 540.838 540.838 0 0 1 109.231 27.486 Q 108.793 26.863 108.649 26.652 A 7.317 7.317 0 0 1 108.6 26.58 Q 107.46 25.08 106.08 23.82 A 5.237 5.237 0 0 0 104.919 23.004 A 4.019 4.019 0 0 0 103.08 22.56 L 103.08 21.96 L 104.01 21.99 Q 104.899 22.019 106.144 21.965 A 47.414 47.414 0 0 0 106.26 21.96 Q 107.82 21.9 109.68 21.48 A 8.188 8.188 0 0 0 112.596 20.167 A 9.827 9.827 0 0 0 113.16 19.74 A 6.448 6.448 0 0 0 114.546 18.137 Q 115.007 17.401 115.36 16.474 A 12.742 12.742 0 0 0 115.62 15.72 A 8.221 8.221 0 0 0 115.747 15.179 Q 115.845 14.689 115.92 14.07 Q 116.04 13.08 115.98 12.12 A 13.704 13.704 0 0 0 115.685 9.401 Q 115.198 7.167 113.91 5.61 Q 111.9 3.18 108.54 3 Q 106.86 2.88 105.09 2.91 Q 103.33 2.94 102.134 2.94 A 62.988 62.988 0 0 1 102.12 2.94 L 100.92 2.94 A 0.198 0.198 0 0 0 100.915 2.904 Q 100.892 2.796 100.77 2.43 L 100.47 1.53 L 100.32 1.08 Z M 135.9 6.78 L 135.36 0.18 L 170.22 37.38 L 170.76 43.92 L 135.9 6.78 Z M 202.62 1.08 L 207.3 1.08 L 234 43.02 L 229.2 43.02 L 202.62 1.08 Z M 25.5 40.14 L 43.56 0.24 L 44.04 4.26 L 28.98 37.8 L 28.53 38.82 A 22.908 22.908 0 0 0 28.188 39.64 Q 27.99 40.141 27.786 40.714 A 42.291 42.291 0 0 0 27.6 41.25 A 16.451 16.451 0 0 0 27.155 42.789 A 12.987 12.987 0 0 0 26.94 43.92 L 26.34 43.92 L 25.5 40.14 Z M 63.18 1.08 L 67.08 1.08 L 67.08 43.08 L 63.18 43.08 L 63.18 1.08 Z M 97.2 1.08 L 101.1 1.08 L 101.1 43.08 L 97.2 43.08 L 97.2 1.08 Z M 185.88 1.08 L 189.78 1.08 L 189.78 43.08 L 185.88 43.08 L 185.88 1.08 Z M 43.56 0.24 L 44.1 0.24 L 49.26 43.08 L 44.58 43.08 L 41.28 6.72 L 43.56 0.24 Z M 135.36 0.18 L 134.76 0.18 L 135.03 2.4 A 30.636 30.636 0 0 1 135.142 3.487 Q 135.222 4.431 135.262 5.503 A 59.181 59.181 0 0 1 135.3 7.68 L 135.3 43.08 L 138.06 43.08 L 138 3.54 L 135.36 0.18 Z M 170.76 43.92 L 171.3 43.92 L 171.15 42.81 A 23.252 23.252 0 0 1 171.119 42.569 Q 170.987 41.513 170.88 39.93 A 49.567 49.567 0 0 1 170.839 39.261 A 55.827 55.827 0 0 1 170.76 36.24 L 170.76 1.08 L 168.06 1.08 L 168.06 40.74 L 170.76 43.92 Z M 201.54 43.02 L 216.48 20.76 L 217.86 23.34 L 205.38 43.02 L 201.54 43.02 Z M 229.2 1.08 L 233.1 1.08 L 219 21.84 L 216.96 20.4 L 229.2 1.08 Z M 86.34 33.36 L 86.94 33.36 L 83.46 43.08 L 73.5 43.08 L 75.66 41.22 Q 77.984 41.22 79.683 40.691 A 8.051 8.051 0 0 0 80.85 40.23 Q 82.86 39.24 84.12 37.44 A 20.735 20.735 0 0 0 85.711 34.738 A 24.886 24.886 0 0 0 86.34 33.36 Z M 66.9 41.22 L 83.28 41.22 L 83.28 43.08 L 66.9 43.08 L 66.9 41.22 Z M 66.9 1.08 L 83.28 1.08 L 83.28 2.94 L 66.9 2.94 L 66.9 1.08 Z M 226.5 38.76 L 231.42 39 A 8.532 8.532 0 0 0 233.008 40.705 A 10.694 10.694 0 0 0 234 41.43 Q 235.62 42.48 237.48 42.48 L 238.32 42.48 L 238.32 43.08 L 223.68 43.08 L 223.68 42.48 L 224.04 42.48 L 224.4 42.48 Q 225.66 42.48 226.47 41.28 Q 227.28 40.08 226.5 38.76 Z M 198.36 1.08 L 212.88 1.08 L 212.88 1.68 L 212.52 1.68 L 212.16 1.68 Q 211.38 1.68 210.69 2.25 Q 210 2.82 209.79 3.69 A 2.238 2.238 0 0 0 209.726 4.217 Q 209.726 4.675 209.922 5.125 A 2.825 2.825 0 0 0 210.06 5.4 L 205.26 5.22 A 9.067 9.067 0 0 0 203.664 3.483 A 11.272 11.272 0 0 0 202.71 2.76 Q 201.12 1.68 199.2 1.68 L 198.36 1.68 L 198.36 1.08 Z M 204.3 38.94 L 208.08 38.76 Q 207.706 39.342 207.706 39.937 A 1.995 1.995 0 0 0 207.78 40.47 Q 208.02 41.34 208.71 41.91 A 2.66 2.66 0 0 0 209.325 42.297 A 2.089 2.089 0 0 0 210.18 42.48 L 210.57 42.48 L 210.96 42.48 L 210.96 43.08 L 197.34 43.08 L 197.34 42.48 L 198.18 42.48 Q 200.1 42.48 201.72 41.4 A 10.624 10.624 0 0 0 203.255 40.168 A 8.504 8.504 0 0 0 204.3 38.94 Z M 223.68 1.08 L 237.18 1.08 L 237.18 1.68 L 236.34 1.68 Q 234.48 1.68 232.89 2.76 A 11.356 11.356 0 0 0 231.128 4.225 A 9.629 9.629 0 0 0 230.28 5.22 L 226.44 5.4 A 2.585 2.585 0 0 0 226.719 4.83 Q 226.909 4.267 226.77 3.69 Q 226.56 2.82 225.9 2.25 Q 225.24 1.68 224.4 1.68 L 224.04 1.68 L 223.68 1.68 L 223.68 1.08 Z M 66.9 21.48 L 80.7 21.48 L 80.7 23.28 L 66.9 23.28 L 66.9 21.48 Z M 5.34 38.7 L 6.66 38.7 L 6.66 43.08 L 0 43.08 L 0 42.48 L 0.51 42.48 L 0.96 42.48 Q 2.58 42.48 3.84 41.49 A 3.895 3.895 0 0 0 5.214 39.347 A 5.341 5.341 0 0 0 5.34 38.7 Z M 47.46 43.08 L 47.46 38.7 L 48.72 38.7 A 5.05 5.05 0 0 0 49.144 40.074 A 3.977 3.977 0 0 0 50.28 41.49 Q 51.54 42.48 53.1 42.48 L 53.58 42.48 L 54.06 42.48 L 54.06 43.08 L 47.46 43.08 Z M 137.88 38.82 L 138.06 38.82 A 3.515 3.515 0 0 0 139.107 41.366 A 4.365 4.365 0 0 0 139.14 41.4 A 3.624 3.624 0 0 0 140.529 42.288 A 3.632 3.632 0 0 0 141.72 42.48 L 142.32 42.48 L 142.86 42.48 L 142.86 43.08 L 137.88 43.08 L 137.88 38.82 Z M 135.3 38.82 L 135.48 38.82 L 135.48 43.08 L 130.5 43.08 L 130.5 42.48 L 131.04 42.48 L 131.64 42.48 A 3.515 3.515 0 0 0 134.186 41.433 A 4.365 4.365 0 0 0 134.22 41.4 A 3.624 3.624 0 0 0 135.108 40.011 A 3.632 3.632 0 0 0 135.3 38.82 Z M 163.2 1.68 L 163.2 1.08 L 168.18 1.08 L 168.18 5.34 L 168.06 5.34 A 4.001 4.001 0 0 0 167.726 3.847 A 3.718 3.718 0 0 0 166.95 2.73 A 3.535 3.535 0 0 0 164.389 1.68 A 4.599 4.599 0 0 0 164.34 1.68 L 163.8 1.68 L 163.2 1.68 Z M 170.58 1.08 L 175.56 1.08 L 175.56 1.68 L 175.02 1.68 L 174.48 1.68 Q 172.98 1.68 171.9 2.73 Q 170.82 3.78 170.76 5.34 L 170.58 5.34 L 170.58 1.08 Z M 63.18 38.7 L 63.36 38.7 L 63.36 43.08 L 58.56 43.08 L 58.56 42.48 L 58.95 42.48 L 59.34 42.48 A 3.635 3.635 0 0 0 61.975 41.404 A 4.438 4.438 0 0 0 62.01 41.37 Q 63.12 40.26 63.18 38.7 Z M 97.2 38.7 L 97.38 38.7 L 97.38 43.08 L 92.58 43.08 L 92.58 42.48 L 92.97 42.48 L 93.36 42.48 A 3.635 3.635 0 0 0 95.995 41.404 A 4.438 4.438 0 0 0 96.03 41.37 Q 97.14 40.26 97.2 38.7 Z M 185.88 38.7 L 186.06 38.7 L 186.06 43.08 L 181.26 43.08 L 181.26 42.48 L 181.65 42.48 L 182.04 42.48 A 3.635 3.635 0 0 0 184.675 41.404 A 4.438 4.438 0 0 0 184.71 41.37 Q 185.82 40.26 185.88 38.7 Z M 189.78 5.46 L 189.6 5.46 L 189.6 1.08 L 194.4 1.08 L 194.4 1.68 L 193.98 1.68 L 193.62 1.68 A 3.635 3.635 0 0 0 190.985 2.756 A 4.438 4.438 0 0 0 190.95 2.79 Q 189.84 3.9 189.78 5.46 Z M 97.38 1.08 L 97.38 5.46 L 97.2 5.46 Q 97.14 3.9 96.03 2.79 A 3.636 3.636 0 0 0 93.409 1.68 A 4.359 4.359 0 0 0 93.36 1.68 L 92.97 1.68 L 92.58 1.68 L 92.58 1.08 L 97.38 1.08 Z M 186.06 1.08 L 186.06 5.46 L 185.88 5.46 Q 185.82 3.9 184.71 2.79 A 3.636 3.636 0 0 0 182.089 1.68 A 4.359 4.359 0 0 0 182.04 1.68 L 181.65 1.68 L 181.26 1.68 L 181.26 1.08 L 186.06 1.08 Z M 189.6 43.08 L 189.6 38.7 L 189.78 38.7 Q 189.84 40.26 190.95 41.37 A 3.636 3.636 0 0 0 193.571 42.48 A 4.359 4.359 0 0 0 193.62 42.48 L 193.98 42.48 L 194.4 42.48 L 194.4 43.08 L 189.6 43.08 Z M 63.36 1.08 L 63.36 5.46 L 63.18 5.46 A 3.584 3.584 0 0 0 62.093 2.842 A 4.48 4.48 0 0 0 62.04 2.79 Q 60.9 1.68 59.34 1.68 L 58.98 1.68 L 58.62 1.68 L 58.56 1.08 L 63.36 1.08 Z M 100.92 43.08 L 100.92 38.7 L 101.1 38.7 A 3.584 3.584 0 0 0 102.187 41.318 A 4.48 4.48 0 0 0 102.24 41.37 Q 103.38 42.48 104.94 42.48 L 105.3 42.48 L 105.66 42.48 L 105.66 43.08 L 100.92 43.08 Z M 83.28 0 L 83.28 1.74 L 75.96 1.08 A 21.553 21.553 0 0 0 77.669 1.01 A 25.623 25.623 0 0 0 78.75 0.9 Q 80.22 0.72 81.48 0.48 Q 82.449 0.295 82.993 0.111 A 3.435 3.435 0 0 0 83.28 0 Z M 79.14 2.76 L 83.28 2.76 L 83.28 7.56 L 82.68 7.56 L 82.68 6.48 Q 82.68 5.04 81.66 3.99 Q 80.64 2.94 79.14 2.88 L 79.14 2.76 Z M 77.22 23.16 L 80.7 23.16 L 80.7 27.12 L 80.1 27.12 L 80.1 26.22 Q 80.1 25.02 79.26 24.15 A 2.777 2.777 0 0 0 78.103 23.413 A 2.873 2.873 0 0 0 77.22 23.28 L 77.22 23.16 Z M 80.1 17.64 L 80.7 17.64 L 80.7 21.6 L 77.22 21.6 L 77.22 21.48 Q 78.42 21.42 79.26 20.55 Q 80.1 19.68 80.1 18.48 L 80.1 17.64 Z M 44.28 39.66 L 44.7 39.66 L 44.7 43.08 L 41.04 43.08 L 41.04 42.54 L 41.94 42.54 A 2.051 2.051 0 0 0 43.49 41.878 A 2.618 2.618 0 0 0 43.62 41.73 Q 44.28 40.92 44.28 39.96 L 44.28 39.78 L 44.28 39.66 Z M 7.98 39.66 L 8.4 39.66 L 8.4 39.78 L 8.4 39.96 A 2.592 2.592 0 0 0 8.891 41.473 A 3.39 3.39 0 0 0 9.09 41.73 A 2.494 2.494 0 0 0 9.67 42.239 A 1.989 1.989 0 0 0 10.74 42.54 L 11.64 42.54 L 11.64 43.08 L 7.98 43.08 L 7.98 39.66 Z" vector-effect="non-scaling-stroke"/></g></svg>