<?xml version="1.0" ?>
<!-- Uploaded to: SVG Repo, www.svgrepo.com, Generator: SVG Repo Mixer Tools -->
<svg width="800px" height="800px" viewBox="0 0 48 48" id="svg5" version="1.1" xml:space="preserve" xmlns="http://www.w3.org/2000/svg" xmlns:svg="http://www.w3.org/2000/svg">
<defs id="defs2"/>
<g id="layer1" transform="translate(-170.00002,-377)">
<path d="m 212.53823,413.9554 h -4 v 7 h 4 z" id="path52032" style="color:#000000;fill:#ff5576;fill-opacity:1;fill-rule:evenodd;stroke-width:2;stroke-linecap:round;stroke-linejoin:round;stroke-miterlimit:4.1"/>
<path d="m 204.53823,408.9554 h -4 v 12 h 4 c 0,-4 0,-8 0,-12 z" id="path53969" style="color:#000000;fill:#fcca3d;fill-opacity:1;fill-rule:evenodd;stroke-width:2;stroke-linecap:round;stroke-linejoin:round;stroke-miterlimit:4.1"/>
<path d="m 196.53823,404.06651 h -4 v 16.88889 h 4 c 0,-5.62963 0,-11.25926 0,-16.88889 z" id="path53975" style="color:#000000;fill:#e7e7e7;fill-opacity:1;fill-rule:evenodd;stroke-width:2;stroke-linecap:round;stroke-linejoin:round;stroke-miterlimit:4.1"/>
<path d="m 188.53823,400.9554 h -4 v 20.00003 h 4 c 0,-6.66668 0,-13.33335 0,-20.00003 z" id="path53981" style="color:#000000;fill:#e7e7e7;fill-opacity:1;fill-rule:evenodd;stroke-width:2;stroke-linecap:round;stroke-linejoin:round;stroke-miterlimit:4.1"/>
<path d="m 180.53823,394.9554 h -4 v 26 h 4 c 0,-8.66667 0,-17.33333 0,-26 z" id="path53987" style="color:#000000;fill:#e7e7e7;fill-opacity:1;fill-rule:evenodd;stroke-width:2;stroke-linecap:round;stroke-linejoin:round;stroke-miterlimit:4.1;-inkscape-stroke:none"/>
<path d="m 209.62417,380.99837 a 1.045135,0.95680519 0 0 0 -1.04492,0.95703 v 1.56445 c -1.65968,0.40847 -2.91211,1.76093 -2.91211,3.38477 0,1.95093 1.80691,3.50975 3.95703,3.50976 1.06785,0 1.86914,0.72818 1.86914,1.59962 0,0.87145 -0.80131,1.5996 -1.86914,1.5996 -1.06784,0 -1.86719,-0.72815 -1.86719,-1.5996 a 1.045135,0.95680519 0 0 0 -1.04687,-0.95508 1.045135,0.95680519 0 0 0 -1.04297,0.95508 c 0,1.62383 1.25243,2.97629 2.91211,3.38476 v 1.56445 a 1.045135,0.95680519 0 0 0 1.04492,0.95703 1.045135,0.95680519 0 0 0 1.04687,-0.95703 v -1.56445 c 1.65934,-0.40903 2.91211,-1.76153 2.91211,-3.38476 0,-1.95093 -1.80887,-3.51172 -3.95898,-3.51172 -1.06785,0 -1.86719,-0.7262 -1.86719,-1.59766 0,-0.87145 0.79933,-1.59962 1.86719,-1.59961 1.06785,0 1.86914,0.72816 1.86914,1.59961 a 1.045135,0.95680519 0 0 0 1.04492,0.95508 1.045135,0.95680519 0 0 0 1.04492,-0.95508 c 0,-1.62324 -1.25277,-2.97575 -2.91211,-3.38477 v -1.56445 a 1.045135,0.95680519 0 0 0 -1.04687,-0.95703 z" id="path24975" style="color:#000000;fill:#808b9b;fill-opacity:1;fill-rule:evenodd;stroke:none;stroke-width:0.999995;stroke-linecap:round;stroke-linejoin:round;stroke-miterlimit:4.1;-inkscape-stroke:none"/>
<path d="m 174.45815,381.95931 c -0.26432,0.0209 -0.5095,0.14598 -0.68164,0.34765 -0.35832,0.42062 -0.30759,1.05213 0.11328,1.41016 l 20,17 c 0.45597,0.38808 1.14845,0.29124 1.48047,-0.20703 l 3.34766,-5.02149 12.25976,11.44336 c -0.51751,-0.002 -1.03529,-0.003 -1.46484,0 -0.4976,0.003 -0.77119,-0.008 -1.0918,0.0293 a 1,1 0 0 0 -0.87695,1.11133 1,1 0 0 0 1.11133,0.87695 c -0.0846,0.01 0.38498,-0.015 0.86914,-0.0176 0.48415,-0.003 1.09209,-10e-4 1.68555,0.002 1.18692,0.007 2.3164,0.0215 2.3164,0.0215 a 1.0001,1.0001 0 0 0 1.01172,-1 v -5 a 1,1 0 0 0 -1,-1 1,1 0 0 0 -1,1 v 2.69922 l -13.31836,-12.42969 c -0.45088,-0.4205 -1.17115,-0.33685 -1.51367,0.17578 l -3.37695,5.06446 -19.14258,-16.27149 c -0.20216,-0.17163 -0.46421,-0.25593 -0.72852,-0.23437 z" id="path24983" style="color:#000000;fill:#808b9b;fill-opacity:1;fill-rule:evenodd;stroke-linecap:round;stroke-linejoin:round;stroke-miterlimit:4.1;-inkscape-stroke:none"/>
</g>
</svg>