<?xml version="1.0" encoding="UTF-8"?>
<svg version="1.1" xmlns="http://www.w3.org/2000/svg" width="128" height="128">
<path d="M0 0 C0.85207031 0.32742187 1.70414062 0.65484375 2.58203125 0.9921875 C16.84636987 7.14719345 26.40698003 19.98075232 32.703125 33.65625 C37.86040532 46.95333421 38.26103807 63.7886246 33.25390625 77.1875 C25.96278346 93.54142029 14.71451157 106.0228415 -2 113 C-2.76054688 113.32097656 -3.52109375 113.64195313 -4.3046875 113.97265625 C-19.22157904 119.0958698 -36.79797095 117.00742874 -50.875 110.71484375 C-64.67313221 103.83494172 -75.09169906 92.1539517 -81 78 C-81.48146484 76.85917969 -81.48146484 76.85917969 -81.97265625 75.6953125 C-86.61337175 62.18327575 -85.60899908 45.01956408 -80 32 C-79.67257813 31.14792969 -79.34515625 30.29585937 -79.0078125 29.41796875 C-72.85280655 15.15363013 -60.01924768 5.59301997 -46.34375 -0.703125 C-31.87200808 -6.31599686 -14.26250164 -6.14447289 0 0 Z M-52 27 C-52 46.14 -52 65.28 -52 85 C-48.37 85 -44.74 85 -41 85 C-40.67 70.15 -40.34 55.3 -40 40 C-35.0625 61.9375 -35.0625 61.9375 -33.50805664 68.87084961 C-33.1007145 70.67308019 -32.69309996 72.47524924 -32.28515625 74.27734375 C-32.07435425 75.22226685 -31.86355225 76.16718994 -31.6463623 77.14074707 C-31.44345581 78.03394653 -31.24054932 78.927146 -31.03149414 79.84741211 C-30.85606583 80.62684677 -30.68063751 81.40628143 -30.49989319 82.20933533 C-30.155724 84.00792102 -30.155724 84.00792102 -29 85 C-27.31391034 85.07205511 -25.62499341 85.08386068 -23.9375 85.0625 C-23.01839844 85.05347656 -22.09929687 85.04445312 -21.15234375 85.03515625 C-20.44207031 85.02355469 -19.73179688 85.01195312 -19 85 C-16.92836775 80.39409825 -15.91401438 75.66968143 -14.8359375 70.76171875 C-14.573573 69.58977966 -14.573573 69.58977966 -14.3059082 68.39416504 C-13.65769385 65.49296249 -13.01677349 62.59013412 -12.375 59.6875 C-10.93125 53.190625 -9.4875 46.69375 -8 40 C-7.67 54.85 -7.34 69.7 -7 85 C-3.37 85 0.26 85 4 85 C4 65.86 4 46.72 4 27 C-1.61 27 -7.22 27 -13 27 C-13.45890625 28.9078125 -13.9178125 30.815625 -14.390625 32.78125 C-14.85069929 34.69125539 -15.31077911 36.60125946 -15.77099609 38.51123047 C-16.2345269 40.43575747 -16.69735374 42.36045398 -17.16015625 44.28515625 C-19.38992134 53.53630928 -21.67911173 62.77134309 -24 72 C-24.12306015 71.46573395 -24.2461203 70.9314679 -24.37290955 70.38101196 C-25.65139723 64.83272708 -26.93342292 59.28526837 -28.2175293 53.73828125 C-28.69663289 51.66655219 -29.17482644 49.59461245 -29.65209961 47.52246094 C-30.33730144 44.54827231 -31.02574614 41.57485058 -31.71484375 38.6015625 C-32.03520851 37.20618759 -32.03520851 37.20618759 -32.36204529 35.78262329 C-32.56217728 34.92188202 -32.76230927 34.06114075 -32.96850586 33.17431641 C-33.14393417 32.41486725 -33.31936249 31.65541809 -33.50010681 30.87295532 C-33.95161524 28.9289038 -33.95161524 28.9289038 -35 27 C-40.61 27 -46.22 27 -52 27 Z " fill="#8E23AA" transform="translate(88,8)"/>
</svg>
